<?xml version="1.0" standalone="no"?>
<!DOCTYPE svg PUBLIC "-//W3C//DTD SVG 20010904//EN"
 "http://www.w3.org/TR/2001/REC-SVG-20010904/DTD/svg10.dtd">
<svg version="1.0" xmlns="http://www.w3.org/2000/svg"
 width="256.000000pt" height="256.000000pt" viewBox="0 0 256.000000 256.000000"
 preserveAspectRatio="xMidYMid meet">

<g transform="translate(0.000000,256.000000) scale(0.100000,-0.100000)"
fill="#000000" stroke="none">
<path d="M0 1280 l0 -1280 1280 0 1280 0 0 1280 0 1280 -1280 0 -1280 0 0
-1280z m904 625 c10 -8 22 -12 27 -10 4 3 11 0 15 -6 5 -8 3 -9 -7 -4 -8 4 4
-8 26 -28 22 -20 46 -34 53 -32 7 3 11 1 8 -4 -7 -10 91 -87 106 -83 5 1 7 -2
4 -7 -7 -12 34 -42 46 -35 4 3 5 10 2 16 -4 7 -2 8 5 4 8 -6 9 -11 1 -20 -8
-10 1 -22 37 -50 25 -20 49 -36 53 -36 16 0 99 73 93 83 -3 5 -2 7 4 4 13 -8
55 22 47 34 -3 5 -1 8 4 7 15 -4 113 73 106 83 -3 5 1 7 8 4 7 -2 31 12 53 32
22 20 34 32 26 28 -10 -5 -12 -4 -7 4 4 6 11 9 15 6 5 -2 17 2 27 10 15 11 61
14 222 15 l202 0 0 -640 0 -640 -200 0 -200 0 0 331 c0 261 -3 329 -12 323
-10 -6 -10 -4 0 7 6 7 12 21 12 31 0 16 -3 17 -20 8 -12 -6 -18 -16 -14 -23 4
-7 4 -9 -1 -5 -11 11 -67 -31 -59 -44 4 -6 3 -8 -3 -5 -13 8 -55 -22 -47 -34
3 -5 1 -8 -4 -7 -15 4 -113 -73 -106 -83 3 -5 -1 -7 -8 -4 -7 2 -31 -12 -53
-32 -22 -20 -33 -32 -25 -28 8 5 12 5 8 1 -3 -4 -9 -7 -13 -6 -3 1 -17 -6 -31
-14 -22 -15 -26 -15 -47 -1 -13 8 -26 13 -29 9 -3 -3 -9 0 -14 7 -5 8 -3 10 7
4 8 -4 -4 8 -26 28 -22 20 -46 34 -53 32 -7 -3 -11 -1 -8 4 7 10 -91 87 -106
83 -5 -1 -7 2 -4 7 8 12 -34 42 -47 34 -6 -3 -7 -1 -3 5 8 13 -48 55 -59 44
-5 -4 -5 -2 -1 5 4 7 -2 17 -14 23 -17 9 -20 8 -20 -8 0 -10 6 -24 13 -31 10
-11 10 -13 0 -7 -10 6 -13 -62 -13 -323 l0 -331 -200 0 -200 0 0 640 0 640
203 0 c160 -1 206 -4 221 -15z m387 -248 c-8 -8 -14 -7 -23 2 -11 10 -9 11 6
5 15 -6 17 -4 11 6 -6 9 -4 11 4 5 9 -5 10 -10 2 -18z"/>
</g>
</svg>
